<?xml version="1.0" encoding="utf-8"?>
<!-- Generator: Adobe Illustrator 25.2.1, SVG Export Plug-In . SVG Version: 6.00 Build 0)  -->
<svg version="1.1" id="Layer_1" xmlns="http://www.w3.org/2000/svg" xmlns:xlink="http://www.w3.org/1999/xlink" x="0px" y="0px"
	 viewBox="0 0 300 119" style="enable-background:new 0 0 300 119;" xml:space="preserve">
<style type="text/css">
	.st0{fill:#E77025;}
	.st1{fill:#404041;}
</style>
<g>
	<path class="st0" d="M235.82,79.9c-9.09,0-13.08-10.8-16.95-21.25c-3.22-8.71-6.55-17.71-11.87-17.71
		c-5.32,0-8.65,9.01-11.87,17.71c-3.86,10.45-7.86,21.25-16.95,21.25v-5.41c5.32,0,8.65-9.01,11.87-17.71
		c3.86-10.45,7.86-21.25,16.94-21.25c9.09,0,13.08,10.8,16.95,21.25c3.22,8.71,6.55,17.71,11.87,17.71V79.9z"/>
</g>
<g>
	<path class="st1" d="M32.13,80.16c-6.96,0-12.35-0.27-16.02-0.8c-3.7-0.54-6.55-1.48-8.47-2.8c-4.33-3.07-6.52-9.18-6.52-18.18
		c0-6.18,0.94-10.95,2.79-14.17c1.2-2.1,2.62-3.7,4.22-4.76c1.59-1.05,3.42-1.81,5.43-2.26c1.99-0.44,4.22-0.69,6.63-0.72
		c2.4-0.03,4.98-0.04,7.68-0.04c2.63,0,5.07-0.01,7.23-0.04c2.23-0.03,4.35,0.11,6.31,0.4c1.97,0.3,3.81,0.85,5.45,1.62
		c1.66,0.78,3.23,2,4.67,3.62c1.08,1.26,1.92,2.55,2.49,3.85c0.57,1.29,0.99,2.66,1.26,4.06c0.27,1.4,0.42,2.92,0.45,4.53
		c0.03,1.6,0.07,3.37,0.13,5.32l0.01,0.31H8.91c0.2,4.89,1.22,8.33,3.01,10.24c1.03,1.09,2.24,1.88,3.61,2.36
		c1.39,0.49,2.94,0.82,4.59,0.96c1.67,0.15,3.47,0.19,5.38,0.13c1.94-0.06,3.92-0.09,5.91-0.09c4.75,0,8.27-0.22,10.46-0.66
		c2.15-0.43,3.75-1.22,4.76-2.35c0.84-0.84,1.35-2.3,1.52-4.35l0.02-0.27h7.5l-0.01,0.31c-0.06,3.24-0.73,5.82-2.01,7.66
		c-1.27,1.84-2.98,3.24-5.1,4.14c-2.09,0.9-4.59,1.46-7.42,1.67C38.35,80.05,35.31,80.16,32.13,80.16z M9.19,53.82H47.8
		c-0.05-3.87-1.09-6.61-3.08-8.16c-1.37-1.03-3.34-1.76-5.86-2.16c-2.55-0.41-6.32-0.62-11.18-0.62c-4.34,0-7.67,0.19-9.89,0.57
		c-2.19,0.38-3.94,1.06-5.19,2.03C10.66,47.03,9.52,49.83,9.19,53.82z"/>
</g>
<g>
	<path class="st1" d="M115.13,80.01h-7.26V58.38c0-3.75-0.15-6.46-0.44-8.07c-0.29-1.57-0.89-2.91-1.8-3.99
		c-1.13-1.24-2.84-2.14-5.08-2.65c-2.28-0.53-5.75-0.79-10.32-0.79c-5.1,0-9.12,0.37-11.95,1.1c-2.79,0.72-4.91,1.93-6.28,3.58
		c-0.75,0.92-1.3,1.79-1.64,2.59c-0.34,0.8-0.58,1.67-0.69,2.58c-0.12,0.93-0.16,1.96-0.13,3.06c0.03,1.12,0.04,2.47,0.04,4v20.21
		h-7.26V36.95h7.26v6.3h0.05c0.95-1.79,2.15-3.18,3.57-4.12c1.45-0.96,3.11-1.66,4.94-2.08c1.82-0.42,3.85-0.63,6.01-0.63h12.96
		c1.93,0,3.78,0.14,5.51,0.4c1.73,0.27,3.35,0.72,4.82,1.35c1.48,0.63,2.87,1.63,4.14,2.95c1.33,1.39,2.27,3.17,2.78,5.28
		c0.51,2.09,0.76,5.16,0.76,9.13V80.01z"/>
</g>
<g>
	<path class="st1" d="M157.83,80.14c-1.03,0-2.2-0.03-3.46-0.08c-1.88-0.09-4.36-0.13-7.58-0.13c-2.92,0-5.13,0.02-6.73,0.06
		c-1.64,0.04-3.04,0.05-4.2,0.03l-0.44-0.02l-13.81,0V36.36h30.35c6.63,0,11.35,0.26,14.03,0.77c3.39,0.75,5.98,2.57,7.69,5.43
		c0.91,1.49,1.57,3.47,1.93,5.89c0.38,2.51,0.54,5.32,0.54,9.39c0,2.63-0.12,5.05-0.35,7.18c-0.23,2.15-0.59,4.04-1.06,5.63
		c-1.14,3.77-3.38,6.38-6.65,7.78l-0.33,0.1c-1.38,0.5-2.89,0.9-4.59,1.2c-1.2,0.21-2.51,0.35-3.87,0.39
		C158.83,80.14,158.35,80.14,157.83,80.14z M146.25,73.72c2.17,0,4.26,0.05,6.21,0.16c1.89,0.1,3.69,0.15,5.33,0.13
		c1.6-0.02,3.08-0.19,4.4-0.49l0.92-0.21c2.21-0.55,3.74-1.95,4.68-4.29c0.96-2.4,1.45-6.25,1.45-11.44c0-6.4-0.79-10.39-2.49-12.54
		c-0.57-0.73-1.3-1.29-2.15-1.65c-0.88-0.38-1.93-0.64-3.12-0.78c-1.22-0.14-2.63-0.21-4.21-0.19c-1.61,0.02-3.42,0.03-5.45,0.03
		h-23.44v31.48h0.23l6.48,0.05c0.46,0.01,0.91,0.02,1.38,0.02h0c1.16,0,2.41-0.04,3.72-0.11C142.08,73.78,144.12,73.72,146.25,73.72
		z"/>
</g>
<g>
	<path class="st1" d="M295.57,84.04l-0.18,0l-7.78-5.96c-0.24,0.13-0.48,0.23-0.74,0.32c-1.79,0.65-3.25,1.07-4.45,1.29
		c-1.2,0.21-2.5,0.35-3.87,0.39c-1.36,0.04-3.02,0.02-4.92-0.06c-1.87-0.09-4.35-0.13-7.58-0.13c-2.92,0-5.12,0.02-6.73,0.06
		c-1.64,0.04-3.03,0.05-4.2,0.03c-1.19-0.02-2.34-0.1-3.41-0.23c-1.12-0.13-2.56-0.37-4.25-0.7c-4.51-0.88-7.26-3.68-8.19-8.31
		c-0.34-1.61-0.58-3.61-0.71-5.93c-0.12-2.22-0.19-4.6-0.19-7.85c0-5.51,0.3-9.24,0.96-12.08c0.97-4.33,3.65-6.94,7.94-7.73
		c3.44-0.64,8.97-0.96,16.44-0.96h5.19c1.78,0,3.67,0.02,5.62,0.06c1.86,0.04,3.7,0.12,5.47,0.22c1.78,0.11,3.37,0.29,4.72,0.55
		c2.88,0.53,5.08,1.97,6.54,4.28c0.88,1.41,1.52,3.47,1.91,6.12c0.39,2.65,0.58,6.25,0.58,11c0,2.91-0.08,4.74-0.25,6.94
		c-0.17,2.21-0.43,4.07-0.77,5.52c0,0.02-0.19,1.47-0.88,2.93l7,5.3l0.05,0.13c0.03,0.08,0.84,2.06-0.12,3.44
		C297.84,84,295.8,84.04,295.57,84.04z M265.51,73.67c2.17,0,4.26,0.05,6.21,0.16c1.89,0.1,3.68,0.14,5.33,0.13
		c1.6-0.02,3.08-0.19,4.4-0.49c1.43-0.33,2.56-0.75,3.43-1.66c0.74-0.78,1.52-3.43,1.77-4.43c0.13-1.21,0.23-2.66,0.31-4.31
		c0.08-1.69,0.13-2.86,0.13-4.98c0-4.49-0.19-7.94-0.57-10.57c-0.35-2.02-1.2-3.28-2.61-3.85c-1.32-0.58-2.69-0.97-4.07-1.17
		c-1.41-0.21-2.93-0.32-4.5-0.34c-1.59-0.02-3.27,0.01-5.04,0.09c-1.74,0.08-3.7,0.13-5.8,0.13c-6.67,0-11.29,0.21-13.75,0.63
		c-1.62,0.28-2.8,0.79-3.53,1.53c-0.73,0.75-1.24,1.94-1.51,3.56c-0.38,2.4-0.57,5.54-0.57,9.61c0,4.43,0.19,7.11,0.57,9.48
		c0.45,2.85,1.1,4,1.57,4.47c0.82,0.82,1.82,1.39,2.98,1.71c1.21,0.33,2.58,0.51,4.1,0.55c1.55,0.04,3.25,0.01,5.1-0.09
		C261.34,73.72,263.38,73.67,265.51,73.67z"/>
</g>
</svg>
